<svg data-v-0dd9719b="" version="1.0" xmlns="http://www.w3.org/2000/svg" xmlns:xlink="http://www.w3.org/1999/xlink" width="100%" height="100%" viewBox="0 0 340.000000 250.000000" preserveAspectRatio="xMidYMid meet" color-interpolation-filters="sRGB" style="margin: auto;"> <rect data-v-0dd9719b="" x="0" y="0" width="100%" height="100%" fill="#ffffff" fill-opacity="1" class="background"></rect> <rect data-v-0dd9719b="" x="0" y="0" width="100%" height="100%" fill="url(#watermark)" fill-opacity="1" class="watermarklayer"></rect> <g data-v-0dd9719b="" fill="#333" class="icon-text-wrapper icon-svg-group iconsvg" transform="translate(47.24500274658203,90.35796737670898)"><g class="iconsvg-imagesvg" transform="translate(0,0)"><g><rect fill="#333" fill-opacity="0" stroke-width="2" x="0" y="0" width="60" height="69.28406466512702" class="image-rect"></rect> <svg x="0" y="0" width="60" height="69.28406466512702" filtersec="colorsb1771518786" class="image-svg-svg primary" style="overflow: visible;"><svg xmlns="http://www.w3.org/2000/svg" viewBox="0 0 86.5999984741211 100"><g fill-rule="evenodd"><path fill="#ffa200" d="M36.37 82.34l-18.19-10.5-6.36-3.67V31.83l43.3-25L43.3 0 21.65 12.5 0 25v50l21.65 12.5L36.37 96l6.93 4 6.94-4V46l-6.94-4.01L36.37 46v36.34z"></path><path fill="#008df1" d="M31.01 28.09L18.18 35.5v29l11.83 6.83V42.32l13.04-7.53.25-.14 13.3 7.67V92.32l8.35-4.82 3.47-2v-50l-13.3-7.68-11.82 6.83 18.18-10.5 13.3 7.68v50L86.6 75V25L64.95 12.5l-3.47-2-11.82 6.83-18.65 10.76z"></path></g></svg></svg> <!----></g></g> <g transform="translate(67,4.314033508300781)"><g data-gra="path-name" fill-rule="" class="tp-name iconsvg-namesvg" transform="translate(0,0)"><g transform="scale(1)"><g><path d="M12.6-42.83L19.92-26.95 27.3-42.83 39.84-42.83 25.75-16.73 25.75 0 14.09 0 14.09-16.38 0-42.83 12.6-42.83ZM76.08 0L67.44 0 66.01-4.13 65.33-4.13Q63.9-1.85 61.33-0.63 58.77 0.59 55.31 0.59L55.31 0.59Q49.83 0.59 46.79-2.59 43.74-5.77 43.74-11.57L43.74-11.57 43.74-33.19 55.2-33.19 55.2-15.06Q55.2-11.81 56.12-10.14 57.04-8.47 59.15-8.47L59.15-8.47Q62.11-8.47 63.37-10.8 64.63-13.13 64.63-18.66L64.63-18.66 64.63-33.19 76.08-33.19 76.08 0ZM109.63-10.2L109.63-10.2Q109.63-4.86 106-2.14 102.36 0.59 95.57 0.59L95.57 0.59Q91.88 0.59 89.15 0.19 86.43-0.21 83.58-1.26L83.58-1.26 83.58-10.43Q86.25-9.26 89.43-8.5 92.61-7.73 95.1-7.73L95.1-7.73Q98.82-7.73 98.82-9.43L98.82-9.43Q98.82-10.31 97.78-11 96.74-11.69 91.73-13.68L91.73-13.68Q87.16-15.56 85.34-17.94 83.53-20.33 83.53-23.99L83.53-23.99Q83.53-28.62 87.1-31.2 90.67-33.78 97.21-33.78L97.21-33.78Q100.49-33.78 103.37-33.06 106.26-32.34 109.37-30.97L109.37-30.97 106.26-23.58Q103.97-24.61 101.43-25.33 98.88-26.04 97.27-26.04L97.27-26.04Q94.45-26.04 94.45-24.67L94.45-24.67Q94.45-23.82 95.43-23.22 96.42-22.62 101.1-20.77L101.1-20.77Q104.59-19.34 106.3-17.96 108.02-16.58 108.82-14.72 109.63-12.86 109.63-10.2ZM148.27 0L139.63 0 138.19-4.13 137.52-4.13Q136.08-1.85 133.52-0.63 130.96 0.59 127.5 0.59L127.5 0.59Q122.02 0.59 118.97-2.59 115.93-5.77 115.93-11.57L115.93-11.57 115.93-33.19 127.38-33.19 127.38-15.06Q127.38-11.81 128.31-10.14 129.23-8.47 131.34-8.47L131.34-8.47Q134.3-8.47 135.56-10.8 136.82-13.13 136.82-18.66L136.82-18.66 136.82-33.19 148.27-33.19 148.27 0ZM176.46-33.19L176.46-24.61 169.39-24.61 169.39 0 157.94 0 157.94-24.61 153.54-24.61 153.54-30.23 158.17-33.05 158.17-33.6Q158.17-40.17 160.85-43.04 163.54-45.91 169.45-45.91L169.45-45.91Q171.74-45.91 173.77-45.56 175.81-45.21 178.51-44.33L178.51-44.33 176.04-36.91Q173.94-37.5 171.91-37.5L171.91-37.5Q170.6-37.5 170-36.69 169.39-35.89 169.39-34.07L169.39-34.07 169.39-33.19 176.46-33.19Z" transform="translate(0, 45.90999984741211)"></path></g> <!----> <!----> <!----> <!----> <!----> <!----> <!----></g></g> <g data-gra="path-slogan" fill-rule="" class="tp-slogan iconsvg-slogansvg" fill="#333" transform="translate(15.174995422363281,52.5)"><!----> <!----> <g transform="scale(1, 1)"><g transform="scale(1)"><path d="M1.08-7.87L1.08 0L3.59 0C4.03 0 4.43-0.05 4.80-0.14C5.17-0.24 5.48-0.38 5.75-0.58C6.01-0.77 6.22-1.01 6.36-1.30C6.50-1.58 6.58-1.92 6.58-2.30C6.58-2.85 6.42-3.28 6.10-3.59C5.78-3.90 5.33-4.10 4.75-4.19L4.75-4.24C5.22-4.36 5.56-4.57 5.78-4.89C6.01-5.21 6.12-5.56 6.12-5.95C6.12-6.30 6.05-6.59 5.92-6.83C5.79-7.08 5.61-7.28 5.37-7.43C5.13-7.58 4.85-7.69 4.52-7.76C4.19-7.84 3.82-7.87 3.42-7.87ZM3.24-4.51L2.08-4.51L2.08-7.08L3.29-7.08C3.90-7.08 4.37-6.99 4.67-6.80C4.98-6.61 5.14-6.30 5.14-5.87C5.14-5.43 4.99-5.09 4.70-4.86C4.41-4.63 3.92-4.51 3.24-4.51ZM3.44-0.79L2.08-0.79L2.08-3.77L3.44-3.77C4.14-3.77 4.67-3.65 5.04-3.43C5.41-3.20 5.59-2.84 5.59-2.35C5.59-1.82 5.40-1.42 5.03-1.17C4.65-0.92 4.12-0.79 3.44-0.79ZM8.14-7.87L8.14 0L12.79 0L12.79-0.85L9.13-0.85L9.13-3.71L12.12-3.71L12.12-4.56L9.13-4.56L9.13-7.03L12.67-7.03L12.67-7.87ZM14.48-1.72L13.88-1.02C14.23-0.66 14.64-0.38 15.11-0.17C15.58 0.04 16.09 0.14 16.64 0.14C17.06 0.14 17.43 0.09 17.76-0.03C18.09-0.15 18.37-0.31 18.60-0.51C18.83-0.71 19.01-0.95 19.13-1.22C19.26-1.50 19.32-1.79 19.32-2.10C19.32-2.39 19.28-2.64 19.19-2.86C19.11-3.08 19.00-3.27 18.85-3.44C18.71-3.60 18.54-3.75 18.34-3.87C18.14-3.99 17.92-4.10 17.70-4.20L16.58-4.68C16.42-4.74 16.27-4.81 16.12-4.89C15.96-4.97 15.82-5.05 15.70-5.15C15.57-5.25 15.47-5.37 15.39-5.50C15.31-5.63 15.28-5.80 15.28-5.99C15.28-6.35 15.41-6.63 15.68-6.83C15.95-7.04 16.30-7.14 16.74-7.14C17.11-7.14 17.44-7.07 17.73-6.94C18.02-6.81 18.29-6.63 18.53-6.40L19.07-7.04C18.79-7.33 18.45-7.57 18.05-7.75C17.65-7.93 17.21-8.02 16.74-8.02C16.38-8.02 16.05-7.96 15.75-7.86C15.45-7.76 15.19-7.61 14.97-7.42C14.75-7.23 14.58-7.01 14.45-6.76C14.33-6.50 14.27-6.22 14.27-5.93C14.27-5.64 14.32-5.39 14.41-5.17C14.51-4.95 14.63-4.76 14.78-4.60C14.94-4.44 15.11-4.30 15.30-4.19C15.49-4.08 15.68-3.98 15.86-3.90L16.99-3.41C17.18-3.32 17.35-3.24 17.51-3.16C17.67-3.08 17.81-2.99 17.92-2.89C18.04-2.79 18.13-2.67 18.20-2.53C18.27-2.39 18.30-2.22 18.30-2.02C18.30-1.63 18.16-1.32 17.87-1.09C17.58-0.85 17.18-0.73 16.66-0.73C16.25-0.73 15.85-0.82 15.47-1.00C15.09-1.18 14.76-1.42 14.48-1.72ZM22.26-7.03L22.26 0L23.27 0L23.27-7.03L25.64-7.03L25.64-7.87L19.88-7.87L19.88-7.03ZM29.48-7.87L29.48 0L30.48 0L30.48-3.53L33.48-3.53L33.48-4.37L30.48-4.37L30.48-7.03L34.02-7.03L34.02-7.87ZM36.41-4.14L36.41-7.07L37.73-7.07C38.34-7.07 38.82-6.96 39.14-6.76C39.47-6.55 39.64-6.18 39.64-5.66C39.64-5.15 39.47-4.77 39.14-4.52C38.82-4.27 38.34-4.14 37.73-4.14ZM39.73 0L40.86 0L38.87-3.43C39.40-3.57 39.83-3.82 40.15-4.19C40.47-4.56 40.63-5.05 40.63-5.66C40.63-6.07 40.56-6.42 40.43-6.70C40.29-6.98 40.10-7.20 39.86-7.38C39.61-7.56 39.32-7.68 38.98-7.76C38.64-7.83 38.27-7.87 37.87-7.87L35.41-7.87L35.41 0L36.41 0L36.41-3.32L37.84-3.32ZM45.29 0.14C45.78 0.14 46.24 0.05 46.65-0.14C47.06-0.34 47.42-0.61 47.72-0.97C48.02-1.32 48.25-1.75 48.41-2.26C48.58-2.77 48.66-3.34 48.66-3.97C48.66-4.60 48.58-5.16 48.41-5.66C48.25-6.16 48.02-6.58 47.72-6.93C47.42-7.28 47.06-7.55 46.65-7.73C46.24-7.92 45.78-8.02 45.29-8.02C44.79-8.02 44.34-7.92 43.93-7.74C43.51-7.56 43.16-7.29 42.86-6.94C42.57-6.59 42.34-6.17 42.17-5.67C42.01-5.17 41.93-4.60 41.93-3.97C41.93-3.34 42.01-2.77 42.17-2.26C42.34-1.75 42.57-1.32 42.86-0.97C43.16-0.61 43.51-0.34 43.93-0.14C44.34 0.05 44.79 0.14 45.29 0.14ZM45.29-0.73C44.94-0.73 44.62-0.81 44.33-0.96C44.05-1.11 43.81-1.33 43.60-1.61C43.40-1.90 43.24-2.24 43.13-2.63C43.02-3.03 42.96-3.48 42.96-3.97C42.96-4.46 43.02-4.90 43.13-5.29C43.24-5.68 43.40-6.02 43.60-6.29C43.81-6.56 44.05-6.77 44.33-6.92C44.62-7.07 44.94-7.14 45.29-7.14C45.64-7.14 45.96-7.07 46.24-6.92C46.53-6.77 46.77-6.56 46.97-6.29C47.18-6.02 47.34-5.68 47.45-5.29C47.56-4.90 47.62-4.46 47.62-3.97C47.62-3.48 47.56-3.03 47.45-2.63C47.34-2.24 47.18-1.90 46.97-1.61C46.77-1.33 46.53-1.11 46.24-0.96C45.96-0.81 45.64-0.73 45.29-0.73ZM50.35-7.87L50.35 0L51.30 0L51.30-4.12C51.30-4.53 51.29-4.95 51.26-5.36C51.23-5.77 51.20-6.18 51.17-6.58L51.22-6.58L52.07-4.96L54.92 0L55.96 0L55.96-7.87L55.01-7.87L55.01-3.80C55.01-3.39 55.02-2.97 55.05-2.54C55.08-2.11 55.10-1.70 55.13-1.30L55.08-1.30L54.23-2.93L51.38-7.87ZM59.75-7.03L59.75 0L60.76 0L60.76-7.03L63.13-7.03L63.13-7.87L57.37-7.87L57.37-7.03ZM66.97-7.87L66.97 0L71.63 0L71.63-0.85L67.97-0.85L67.97-3.71L70.96-3.71L70.96-4.56L67.97-4.56L67.97-7.03L71.51-7.03L71.51-7.87ZM73.30-7.87L73.30 0L74.24 0L74.24-4.12C74.24-4.53 74.23-4.95 74.20-5.36C74.17-5.77 74.14-6.18 74.11-6.58L74.16-6.58L75.01-4.96L77.87 0L78.90 0L78.90-7.87L77.95-7.87L77.95-3.80C77.95-3.39 77.97-2.97 77.99-2.54C78.02-2.11 78.05-1.70 78.07-1.30L78.02-1.30L77.17-2.93L74.33-7.87ZM81.06-7.87L81.06 0L83.08 0C83.67 0 84.19-0.09 84.65-0.27C85.10-0.45 85.49-0.71 85.80-1.05C86.11-1.39 86.35-1.81 86.51-2.30C86.67-2.79 86.75-3.35 86.75-3.97C86.75-5.23 86.43-6.19 85.80-6.86C85.17-7.54 84.24-7.87 83.03-7.87ZM82.96-0.82L82.06-0.82L82.06-7.06L82.96-7.06C83.88-7.06 84.57-6.79 85.03-6.26C85.49-5.74 85.72-4.97 85.72-3.97C85.72-2.97 85.49-2.20 85.03-1.64C84.57-1.09 83.88-0.82 82.96-0.82ZM90.86-7.87L90.86 0L92.88 0C93.47 0 94.00-0.09 94.45-0.27C94.91-0.45 95.29-0.71 95.60-1.05C95.92-1.39 96.15-1.81 96.31-2.30C96.47-2.79 96.55-3.35 96.55-3.97C96.55-5.23 96.24-6.19 95.60-6.86C94.97-7.54 94.05-7.87 92.83-7.87ZM92.76-0.82L91.86-0.82L91.86-7.06L92.76-7.06C93.68-7.06 94.37-6.79 94.83-6.26C95.29-5.74 95.52-4.97 95.52-3.97C95.52-2.97 95.29-2.20 94.83-1.64C94.37-1.09 93.68-0.82 92.76-0.82ZM98.24-7.87L98.24 0L102.90 0L102.90-0.85L99.24-0.85L99.24-3.71L102.23-3.71L102.23-4.56L99.24-4.56L99.24-7.03L102.78-7.03L102.78-7.87ZM103.49-7.87L106.01 0L107.17 0L109.67-7.87L108.65-7.87L107.39-3.62C107.25-3.15 107.13-2.72 107.02-2.32C106.90-1.92 106.78-1.48 106.63-1.02L106.58-1.02C106.43-1.48 106.30-1.92 106.19-2.32C106.09-2.72 105.96-3.15 105.82-3.62L104.56-7.87ZM110.75-7.87L110.75 0L115.40 0L115.40-0.85L111.74-0.85L111.74-3.71L114.73-3.71L114.73-4.56L111.74-4.56L111.74-7.03L115.28-7.03L115.28-7.87ZM117.07-7.87L117.07 0L121.51 0L121.51-0.85L118.07-0.85L118.07-7.87ZM125.50 0.14C125.99 0.14 126.45 0.05 126.86-0.14C127.27-0.34 127.63-0.61 127.93-0.97C128.23-1.32 128.46-1.75 128.62-2.26C128.79-2.77 128.87-3.34 128.87-3.97C128.87-4.60 128.79-5.16 128.62-5.66C128.46-6.16 128.23-6.58 127.93-6.93C127.63-7.28 127.27-7.55 126.86-7.73C126.45-7.92 125.99-8.02 125.50-8.02C125.00-8.02 124.55-7.92 124.13-7.74C123.72-7.56 123.37-7.29 123.07-6.94C122.78-6.59 122.55-6.17 122.38-5.67C122.22-5.17 122.14-4.60 122.14-3.97C122.14-3.34 122.22-2.77 122.38-2.26C122.55-1.75 122.78-1.32 123.07-0.97C123.37-0.61 123.72-0.34 124.13-0.14C124.55 0.05 125.00 0.14 125.50 0.14ZM125.50-0.73C125.14-0.73 124.83-0.81 124.54-0.96C124.26-1.11 124.01-1.33 123.81-1.61C123.61-1.90 123.45-2.24 123.34-2.63C123.22-3.03 123.17-3.48 123.17-3.97C123.17-4.46 123.22-4.90 123.34-5.29C123.45-5.68 123.61-6.02 123.81-6.29C124.01-6.56 124.26-6.77 124.54-6.92C124.83-7.07 125.14-7.14 125.50-7.14C125.85-7.14 126.17-7.07 126.45-6.92C126.73-6.77 126.98-6.56 127.18-6.29C127.39-6.02 127.54-5.68 127.66-5.29C127.77-4.90 127.82-4.46 127.82-3.97C127.82-3.48 127.77-3.03 127.66-2.63C127.54-2.24 127.39-1.90 127.18-1.61C126.98-1.33 126.73-1.11 126.45-0.96C126.17-0.81 125.85-0.73 125.50-0.73ZM130.56-7.87L130.56 0L131.56 0L131.56-3.12L132.97-3.12C133.40-3.12 133.80-3.17 134.15-3.27C134.51-3.37 134.82-3.52 135.07-3.72C135.33-3.92 135.53-4.17 135.67-4.48C135.81-4.78 135.88-5.14 135.88-5.56C135.88-5.99 135.81-6.35 135.67-6.65C135.53-6.94 135.33-7.18 135.08-7.36C134.83-7.54 134.52-7.67 134.16-7.75C133.80-7.83 133.40-7.87 132.97-7.87ZM132.85-3.94L131.56-3.94L131.56-7.07L132.85-7.07C133.53-7.07 134.04-6.96 134.38-6.74C134.71-6.52 134.88-6.12 134.88-5.56C134.88-5.00 134.71-4.59 134.38-4.33C134.05-4.07 133.54-3.94 132.85-3.94ZM137.47-7.87L137.47 0L142.13 0L142.13-0.85L138.47-0.85L138.47-3.71L141.46-3.71L141.46-4.56L138.47-4.56L138.47-7.03L142.01-7.03L142.01-7.87ZM144.79-4.14L144.79-7.07L146.11-7.07C146.73-7.07 147.20-6.96 147.53-6.76C147.86-6.55 148.02-6.18 148.02-5.66C148.02-5.15 147.86-4.77 147.53-4.52C147.20-4.27 146.73-4.14 146.11-4.14ZM148.12 0L149.24 0L147.25-3.43C147.79-3.57 148.22-3.82 148.54-4.19C148.86-4.56 149.02-5.05 149.02-5.66C149.02-6.07 148.95-6.42 148.81-6.70C148.68-6.98 148.49-7.20 148.24-7.38C148.00-7.56 147.71-7.68 147.37-7.76C147.03-7.83 146.66-7.87 146.26-7.87L143.80-7.87L143.80 0L144.79 0L144.79-3.32L146.22-3.32Z" transform="translate(-1.08, 8.016)"></path></g></g></g></g></g><defs v-gra="od"></defs></svg>